Coordinates
version=1
nRows=26
nColumns=24
inDegrees=yes

Units are S.I. units (second, meters, Newtons, ...)
Angles are in degrees.

endheader
time	pelvis_tilt	pelvis_list	pelvis_rotation	pelvis_tx	pelvis_ty	pelvis_tz	hip_flexion_r	hip_adduction_r	hip_rotation_r	knee_angle_r	ankle_angle_r	subtalar_angle_r	mtp_angle_r	hip_flexion_l	hip_adduction_l	hip_rotation_l	knee_angle_l	ankle_angle_l	subtalar_angle_l	mtp_angle_l	lumbar_extension	lumbar_bending	lumbar_rotation
      3.38500000	     -9.40904393	      0.97270374	      7.98828144	     -1.19428537	     -0.04199390	      0.66558915	     38.33308880	     -5.80362404	      2.78273358	    -24.37686603	     -9.62971990	     -6.22599588	     22.56212077	     -7.49862644	      1.37208757	      9.50128064	    -18.93245950	      9.11422857	      6.86730968	      1.96536617	      7.64725008	      2.11210620	    -14.47538708
      3.39000000	     -9.55678636	      0.83256337	      8.15618140	     -1.18598310	     -0.04271961	      0.66568230	     38.51838771	     -5.72592707	      2.80927606	    -25.25526910	     -9.95509389	     -6.00253070	     23.03692142	     -7.29382165	      1.17501710	      9.49905261	    -19.68611357	      7.59251179	      6.85083132	      4.37440515	      7.96467118	      2.36218954	    -14.47131543
      3.39500000	     -9.55437812	      0.55262962	      8.34869723	     -1.17759041	     -0.04319401	      0.66563930	     38.53932811	     -5.52475923	      2.73762213	    -26.17022459	     -9.99671514	     -5.69839805	     23.09336633	     -7.15302796	      0.83472359	      9.56959304	    -20.67405933	      6.73690808	      7.00636740	      4.46849689	      8.15609767	      2.79272609	    -14.47713078
      3.40000000	     -9.73625666	      0.42582309	      8.50643421	     -1.16941657	     -0.04384197	      0.66579095	     38.85096754	     -5.43055511	      2.87058585	    -27.26581805	     -9.72115614	     -5.30206712	     22.50414871	     -6.75355707	      0.68679582	      9.60350198	    -21.64947100	      4.92168675	      6.86933650	      7.06509453	      8.48843393	      3.02490109	    -14.44758657
      3.40500000	     -9.73894061	      0.12552209	      8.70000138	     -1.16116672	     -0.04421368	      0.66584853	     38.93537135	     -5.17774222	      2.85351379	    -28.30972370	     -9.25666466	     -4.96987444	     21.74243873	     -6.42119243	      0.32140457	      9.54770110	    -22.80692657	      3.31959873	      6.93520969	      8.90109007	      8.67093095	      3.46653470	    -14.49443456
      3.41000000	     -9.75538401	     -0.09763418	      8.81372439	     -1.15300311	     -0.04455729	      0.66595251	     39.06365558	     -4.93757435	      2.91860830	    -29.39779961	     -8.60852938	     -4.64441229	     20.58133113	     -6.01647428	      0.07822376	      9.47269215	    -24.05742414	      1.55982963	      6.83020527	     10.48105262	      8.84073431	      3.85066049	    -14.42231661
      3.41500000	     -9.73554157	     -0.36879266	      8.92342690	     -1.14483604	     -0.04480149	      0.66605365	     39.12287896	     -4.63368643	      2.95172925	    -30.44945158	     -7.79823614	     -4.36333692	     18.99428812	     -5.55775495	     -0.21839294	      9.34125899	    -25.40242067	     -0.39438455	      6.70163542	     12.24184937	      8.98377065	      4.29197801	    -14.39583070
      3.42000000	     -9.75651713	     -0.64125144	      9.07333220	     -1.13680381	     -0.04499135	      0.66603535	     39.19960311	     -4.37981584	      2.80978892	    -31.44308648	     -7.03118345	     -4.20476639	     17.37609640	     -4.94359699	     -0.48580396	      9.26860133	    -26.88026676	     -2.48332225	      6.50086635	     13.81363330	      9.16066913	      4.72997810	    -14.37753194
      3.42500000	     -9.70976437	     -0.91018202	      9.19092699	     -1.12887766	     -0.04505672	      0.66603230	     39.15669366	     -4.09159610	      2.66248131	    -32.34059301	     -6.28331919	     -4.20713570	     15.83977873	     -4.32741724	     -0.73808946	      9.17687275	    -28.41961471	     -4.76614374	      6.16659917	     15.37649289	      9.24497355	      5.18361154	    -14.33883500
      3.43000000	     -9.65346570	     -1.16673249	      9.27815748	     -1.12105823	     -0.04503242	      0.66600893	     39.04702456	     -3.80862406	      2.48099668	    -33.10967666	     -5.62188781	     -4.24122616	     14.82201717	     -3.64474623	     -0.95780202	      9.05881493	    -30.02618481	     -7.16970808	      5.79230222	     16.71682812	      9.30276180	      5.63936169	    -14.27268082
      3.43500000	     -9.58030573	     -1.43374610	      9.35552725	     -1.11334623	     -0.04493143	      0.66594215	     38.85581330	     -3.52504250	      2.23304482	    -33.73903084	     -5.03769723	     -4.30199348	     14.37229420	     -2.90056617	     -1.17082851	      8.93763653	    -31.70338994	     -9.59025539	      5.41591609	     17.70200325	      9.33122739	      6.11528828	    -14.19618933
      3.44000000	     -9.48171629	     -1.69720844	      9.42897985	     -1.10584477	     -0.04474780	      0.66582841	     38.58388378	     -3.25145246	      1.93700931	    -34.23544041	     -4.58555260	     -4.45813456	     14.38379260	     -2.09495229	     -1.35018783	      8.84065976	    -33.48537215	    -11.83266112	      5.06221291	     17.85039403	      9.29913955	      6.59712777	    -14.11929224
      3.44500000	     -9.42779354	     -2.00078908	      9.44913682	     -1.09844158	     -0.04463405	      0.66574211	     38.32496034	     -2.94573463	      1.61575031	    -34.64070924	     -4.05764888	     -4.31148165	     14.63476298	     -1.17769258	     -1.56782960	      8.66437159	    -35.27989579	    -14.15373634	      4.81267882	     18.45610482	      9.30489235	      7.12670006	    -13.97147886
      3.45000000	     -9.28799955	     -2.33736696	      9.41370143	     -1.09106969	     -0.04441368	      0.66574720	     37.91973103	     -2.55425672	      1.29227401	    -34.92789998	     -3.53683676	     -4.31161904	     14.80496379	     -0.30474688	     -1.82987962	      8.40485372	    -37.13186199	    -16.07452357	      4.70644390	     18.05295013	      9.21107965	      7.70487885	    -13.77330631
      3.45500000	     -9.20083321	     -2.67326948	      9.43373700	     -1.08386962	     -0.04418601	      0.66563040	     37.53579041	     -2.23222443	      0.88912764	    -35.14294501	     -3.04339439	     -4.21445428	     15.01928171	      0.68340189	     -2.05444469	      8.26822872	    -38.99944858	    -17.90050148	      4.66010492	     17.66268623	      9.16235122	      8.26737975	    -13.63606118
      3.46000000	     -9.09580032	     -3.00779050	      9.40380067	     -1.07683161	     -0.04401557	      0.66563147	     37.12889437	     -1.88742509	      0.47379712	    -35.32119612	     -2.51590501	     -4.08940790	     15.20992960	      1.69926728	     -2.29153612	      8.03251833	    -40.90318259	    -19.41774645	      4.71668297	     17.22383850	      9.05626362	      8.82378942	    -13.41983833
      3.46500000	     -9.14631599	     -3.35792915	      9.43524164	     -1.06988451	     -0.04400540	      0.66548271	     36.87061243	     -1.61352052	     -0.01481847	    -35.46707461	     -1.99933757	     -3.90533578	     15.49450454	      2.96896453	     -2.48603092	      7.88757595	    -42.96531609	    -20.13884755	      5.02591652	     15.37356151	      9.13433074	      9.36073219	    -13.29188314
      3.47000000	     -9.04500519	     -3.73520802	      9.40475230	     -1.06299663	     -0.04379032	      0.66547717	     36.42453459	     -1.22912201	     -0.44009517	    -35.54455739	     -1.51022734	     -3.77641149	     15.63339080	      4.08193472	     -2.75757658	      7.62715201	    -44.99055830	    -20.54039131	      5.29976164	     13.46587269	      9.02403115	      9.95092198	    -13.08034868
      3.47500000	     -8.98128158	     -4.05754255	      9.33880703	     -1.05621244	     -0.04358775	      0.66552585	     36.01532310	     -0.87627463	     -0.78405400	    -35.61190681	     -1.04247604	     -3.59876829	     15.92398637	      5.24697498	     -2.96387595	      7.31230049	    -47.02079303	    -20.56805065	      5.49205118	     11.35542156	      8.92504551	     10.47261111	    -12.82116990
      3.48000000	     -8.92356695	     -4.45120192	      9.31941566	     -1.04940530	     -0.04332385	      0.66566519	     35.58039918	     -0.45207854	     -1.15688036	    -35.61331650	     -0.61660756	     -3.56827745	     16.14369475	      6.43423701	     -3.27514125	      7.04308183	    -48.97168564	    -20.59257820	      5.67652561	     10.46177241	      8.86015300	     11.03276284	    -12.63107237
      3.48500000	     -8.90867041	     -4.72615209	      9.20719753	     -1.04270795	     -0.04301236	      0.66582763	     35.19475401	     -0.09805663	     -1.37259777	    -35.61801696	     -0.24454239	     -3.41632586	     16.61693609	      7.65915332	     -3.43703762	      6.68920763	    -50.97042949	    -19.90736574	      5.88835078	      8.32169944	      8.78403079	     11.48590484	    -12.25596121
      3.49000000	     -8.72360184	     -4.88665417	      9.07856793	     -1.03593926	     -0.04235246	      0.66608363	     34.57995658	      0.20944162	     -1.48808180	    -35.59582269	      0.29250862	     -3.15108238	     16.81716071	      8.60889883	     -3.53988439	      6.26250606	    -52.70735745	    -19.78635911	      5.78559560	      8.30032340	      8.50275905	     11.83115730	    -11.88692375
      3.49500000	     -8.69831919	     -5.10287287	      8.98325046	     -1.02925159	     -0.04183068	      0.66641019	     34.13873710	      0.55533967	     -1.59651480	    -35.54660980	      0.64949401	     -3.20133258	     16.91422938	      9.78804325	     -3.67675620	      5.93902899	    -54.53323129	    -19.04119139	      6.04441747	      7.97588189	      8.41196921	     12.17909541	    -11.54575095
      3.50000000	     -8.55861538	     -5.18577895	      8.85224248	     -1.02252669	     -0.04102851	      0.66668452	     33.53758927	      0.80256166	     -1.61920420	    -35.47751367	      1.12557981	     -3.03767424	     17.02112547	     10.77639708	     -3.69786682	      5.52814622	    -56.20620994	    -18.46794080	      6.11643826	      8.28577536	      8.16967494	     12.41711430	    -11.17143887
      3.50500000	     -8.56858174	     -5.31510440	      8.73348910	     -1.01583394	     -0.04032593	      0.66714603	     33.09423782	      1.11664170	     -1.57764216	    -35.38537686	      1.43633772	     -3.26241848	     16.75245295	     11.94280418	     -3.75883205	      5.23055765	    -57.85370110	    -17.76339959	      6.55115286	      9.33241227	      8.10555191	     12.63992670	    -10.81237848
      3.51000000	     -8.48994780	     -5.34306207	      8.60880881	     -1.00908891	     -0.03938116	      0.66767037	     32.51945416	      1.35581613	     -1.46191831	    -35.29196601	      1.96035539	     -3.19065922	     16.10823559	     12.91908680	     -3.74821709	      4.95321963	    -59.19734082	    -17.98768053	      6.87120503	     13.20830862	      7.93611972	     12.75781236	    -10.46882538
